<?xml version="1.0" encoding="UTF-8"?>
<svg width="80px" height="80px" viewBox="0 0 80 80" version="1.1" xmlns="http://www.w3.org/2000/svg" xmlns:xlink="http://www.w3.org/1999/xlink">
    <title>Logo Bengkel Beteng Betawi</title>
    <g id="Logo" stroke="none" stroke-width="1" fill="none" fill-rule="evenodd">
        <circle id="Background" fill="#075985" cx="40" cy="40" r="40"></circle>
        <g id="Wrench" transform="translate(16.000000, 16.000000)" fill-rule="nonzero">
            <path d="M45.9375,2.0625 C43.5,0.6875 40.5,0.375 37.6875,1.125 C33.5625,2.25 30.375,5.8125 29.8125,10.125 C29.625,11.625 29.8125,13.125 30.1875,14.4375 L17.0625,27.5625 C15.9375,27.1875 14.625,27 13.3125,27.1875 C9,27.75 5.4375,30.9375 4.3125,35.0625 C3.5625,37.875 3.875,40.875 5.25,43.3125 C5.4375,43.5 5.625,43.6875 5.8125,43.6875 C5.8125,43.6875 5.8125,43.6875 6,43.6875 L14.625,42.5625 L15.75,45.75 L12.5625,48.9375 C12.375,49.125 12.375,49.5 12.5625,49.6875 C12.5625,49.6875 12.5625,49.6875 12.75,49.875 C15.1875,51.25 18.1875,51.5625 21,50.8125 C25.125,49.6875 28.3125,46.125 28.875,41.8125 C29.0625,40.3125 28.875,38.8125 28.5,37.5 L41.625,24.375 C42.75,24.75 44.0625,24.9375 45.375,24.75 C49.6875,24.1875 53.25,21 54.375,16.875 C55.125,14.0625 54.8125,11.0625 53.4375,8.625 C53.25,8.4375 53.0625,8.25 52.875,8.25 C52.875,8.25 52.875,8.25 52.6875,8.25 L44.0625,9.375 L42.9375,6.1875 L46.125,3 C46.3125,2.8125 46.3125,2.4375 46.125,2.25 C46.125,2.25 46.125,2.25 45.9375,2.0625 Z" id="Shape" fill="#DC2626"></path>
            <path d="M26.4375,40.5 C26.0625,43.125 24,45.1875 21.375,45.5625 C19.5,45.9375 17.625,45.1875 16.5,43.875 L18.75,40.125 C18.9375,39.75 18.9375,39.375 18.75,39 L16.6875,33.5625 C16.5,33 16.125,32.625 15.5625,32.4375 C15,32.25 14.4375,32.4375 14.0625,32.8125 L10.3125,35.0625 C9,33.9375 8.25,32.0625 8.625,30.1875 C9,27.5625 11.0625,25.5 13.6875,25.125 C16.3125,24.75 18.75,26.0625 19.875,28.3125 C20.0625,28.6875 20.25,28.875 20.625,29.0625 L35.625,14.0625 C35.8125,14.625 35.4375,14.0625 35.25,13.5 C34.125,11.25 34.5,8.625 36.375,6.75 C37.6875,5.4375 39.375,4.875 41.0625,5.0625 L37.6875,8.4375 C37.3125,8.8125 37.125,9.375 37.3125,9.9375 L39.375,15.375 C39.5625,15.75 39.9375,16.125 40.3125,16.3125 C40.6875,16.5 41.0625,16.5 41.4375,16.3125 L45.375,14.0625 C46.3125,16.125 45.9375,18.5625 44.25,20.25 C42.375,22.125 39.75,22.5 37.5,21.375 C37.125,21.1875 36.9375,21 36.5625,21 C36.1875,21 35.8125,21.1875 35.625,21.375 L20.625,36.375 C20.25,36.1875 19.6875,36 19.3125,35.8125 C19.3125,35.625 19.5,35.625 19.5,35.8125 C21.75,36.9375 22.875,39.5625 22.5,42 L26.4375,40.5 Z" id="Shape" fill="#FFFFFF"></path>
        </g>
    </g>
</svg>